<?xml version="1.0" encoding="UTF-8" standalone="no"?>
<!-- Created with Inkscape (http://www.inkscape.org/) -->

<svg
   version="1.1"
   id="svg2"
   width="369.23999"
   height="366.06668"
   viewBox="0 0 369.23999 366.06668"
   sodipodi:docname="Kubeflow-Logo-CMYK.eps"
   xmlns:inkscape="http://www.inkscape.org/namespaces/inkscape"
   xmlns:sodipodi="http://sodipodi.sourceforge.net/DTD/sodipodi-0.dtd"
   xmlns="http://www.w3.org/2000/svg"
   xmlns:svg="http://www.w3.org/2000/svg">
  <defs
     id="defs6" />
  <sodipodi:namedview
     id="namedview4"
     pagecolor="#ffffff"
     bordercolor="#000000"
     borderopacity="0.25"
     inkscape:showpageshadow="2"
     inkscape:pageopacity="0.0"
     inkscape:pagecheckerboard="0"
     inkscape:deskcolor="#d1d1d1" />
  <g
     id="g8"
     inkscape:groupmode="layer"
     inkscape:label="ink_ext_XXXXXX"
     transform="matrix(1.3333333,0,0,-1.3333333,0,366.06667)">
    <g
       id="g10"
       transform="scale(0.1)">
      <path
         d="m 958.965,2124.05 40.699,-1021 737.546,941.16 c 11.2,14.29 27.64,23.5 45.67,25.58 18.09,2.09 36.15,-3.13 50.31,-14.49 L 2293.3,1686.15 2143.55,2342.26 958.965,2124.05"
         style="fill:#526bbd;fill-opacity:1;fill-rule:nonzero;stroke:none"
         id="path12" />
      <path
         d="M 1025.45,915.711 H 1679.7 L 1278,1237.97 Z"
         style="fill:#2a3b99;fill-opacity:1;fill-rule:nonzero;stroke:none"
         id="path14" />
      <path
         d="m 1801.76,1906.33 -439.95,-561.42 468.79,-376.09 444.68,557.62 -473.52,379.89"
         style="fill:#3950aa;fill-opacity:1;fill-rule:nonzero;stroke:none"
         id="path16" />
      <path
         d="m 835.648,2222.55 c 0.028,0.04 0.051,0.07 0.079,0.1 L 1222.63,2707.82 598.691,2407.35 444.59,1732.18 835.648,2222.55"
         style="fill:#c7dff5;fill-opacity:1;fill-rule:nonzero;stroke:none"
         id="path18" />
      <path
         d="m 453.191,1525.07 414.399,-519.64 -39.453,989.8 z"
         style="fill:#7d98d5;fill-opacity:1;fill-rule:nonzero;stroke:none"
         id="path20" />
      <path
         d="m 2023.08,2458.21 -596.62,287.31 -371.3,-465.61 z"
         style="fill:#abc2e8;fill-opacity:1;fill-rule:nonzero;stroke:none"
         id="path22" />
      <path
         d="M 377.633,489.309 H 270.953 L 89.4063,281.738 V 489.309 H 0 V 9.67969 H 89.4063 V 161.07 L 130.953,208.391 283.113,9.67969 H 390.957 L 188.969,275.582 377.633,489.309"
         style="fill:#526bbd;fill-opacity:1;fill-rule:nonzero;stroke:none"
         id="path24" />
      <path
         d="m 611.547,121.379 c 0,-12.649 -4.914,-21.4102 -15.942,-28.3868 -13.085,-8.293 -28.324,-12.3125 -46.585,-12.3125 -18.079,0 -33.282,4.0312 -46.485,12.3398 C 491.441,100 486.488,108.75 486.488,121.379 V 361.32 H 400.203 V 123.371 c 0,-39.1015 16.059,-70.0897 47.727,-92.1015 C 477.789,10.5313 511.746,0 548.863,0 c 37.133,0 71.153,10.6406 101.121,31.6094 31.75,22.2226 47.844,53.1015 47.844,91.7616 V 361.32 H 611.547 V 121.379"
         style="fill:#526bbd;fill-opacity:1;fill-rule:nonzero;stroke:none"
         id="path26" />
      <path
         d="M 874.375,90.3516 H 844.863 V 279.73 c 21.606,7.04 47.305,10.59 76.567,10.59 21.699,0 36.515,-7.769 46.621,-24.468 11.39,-18.813 17.168,-41.321 17.168,-66.883 0,-39.129 -8.379,-67.321 -24.906,-83.778 C 943.773,98.6992 914.859,90.3516 874.375,90.3516 Z M 1039.37,312.121 c -11.45,17.899 -27.53,32.359 -47.827,43 C 971.441,365.66 948.07,371 921.98,371 897.5,370.82 871.641,366.961 844.863,359.469 V 521.77 H 758.578 V 9.67969 h 114.961 c 66.934,0 117.199,16.21871 149.391,48.19921 32.23,32.0195 48.57,78.8511 48.57,139.2031 0,20.438 -2.65,40.648 -7.88,60.027 -5.29,19.59 -13.44,38.102 -24.25,55.012"
         style="fill:#526bbd;fill-opacity:1;fill-rule:nonzero;stroke:none"
         id="path28" />
      <path
         d="m 1272.48,290.32 c 19.42,0 33.11,-6.66 43.07,-20.961 8.62,-12.39 14.76,-27.82 18.36,-46.027 H 1198.7 c 4.33,18.078 12.02,32.848 23.3,44.828 14.04,14.922 30.55,22.16 50.48,22.16 z m 149.6,-123.859 c 0,93.309 -25.96,204.539 -149.6,204.539 -49.3,0 -89.65,-17.25 -119.95,-51.262 -29.82,-33.468 -44.94,-78.418 -44.94,-133.597 0,-25 3.54,-48.551 10.53,-69.969 7.1,-21.7501 18.06,-41.6329 32.56,-59.0704 14.89,-17.9102 34.74,-32.1133 59.01,-42.1797 C 1233.51,5.01953 1261.46,0 1292.87,0 c 35.49,0.238281 70.57,6.89063 104.26,19.8008 l 10.27,3.918 V 109.949 L 1384.73,99.4883 C 1357.64,87 1324.39,80.6797 1285.9,80.6797 c -30.68,0 -52.5,8.2695 -66.7,25.3003 -11.36,13.61 -18.86,28.282 -22.7,44.489 h 225.58 v 15.992"
         style="fill:#526bbd;fill-opacity:1;fill-rule:nonzero;stroke:none"
         id="path30" />
      <path
         d="m 1534.71,493.051 c -18.48,-18.27 -27.85,-42.442 -27.85,-71.852 V 361.32 h -49.63 v -80.672 h 49.63 V 9.67969 h 86.28 V 280.648 h 84.6 v 80.672 h -84.6 v 31.461 c 0,27.668 5.01,37 7.17,39.719 1.37,1.73 7.65,7.359 31.16,7.359 h 65.94 v 80.661 h -94.65 c -26.72,0 -49.63,-9.25 -68.05,-27.469"
         style="fill:#2a3b99;fill-opacity:1;fill-rule:nonzero;stroke:none"
         id="path32" />
      <path
         d="m 1736.61,9.67969 h 86.29 V 521.141 h -86.29 V 9.67969"
         style="fill:#2a3b99;fill-opacity:1;fill-rule:nonzero;stroke:none"
         id="path34" />
      <path
         d="m 2067.42,80.6797 c -30.94,0 -54.87,9.6797 -73.18,29.6293 -18.66,20.332 -27.74,44.921 -27.74,75.191 0,30.262 9.08,54.859 27.75,75.199 18.3,19.942 42.23,29.621 73.17,29.621 30.56,0 54.41,-9.699 72.92,-29.679 18.85,-20.332 28.01,-44.911 28.01,-75.141 0,-30.23 -9.16,-54.801 -28.01,-75.141 -18.51,-19.9801 -42.36,-29.6793 -72.92,-29.6793 z m 0,290.3203 c -54.3,0 -99.6,-18.109 -134.61,-53.809 -34.9,-35.621 -52.6,-79.921 -52.6,-131.691 0,-51.77 17.64,-96.0586 52.43,-131.668 C 1967.54,18.1211 2012.88,0 2067.42,0 c 53.83,0 99,18.2188 134.23,54.1211 35.16,35.8203 52.99,80.0269 52.99,131.3789 0,51.34 -17.83,95.539 -52.99,131.391 C 2166.41,352.789 2121.24,371 2067.42,371"
         style="fill:#2a3b99;fill-opacity:1;fill-rule:nonzero;stroke:none"
         id="path36" />
      <path
         d="m 2678.06,361.32 -61.72,-212.07 -61.45,212.07 h -77.53 l -62.21,-211.961 -61.16,211.961 h -91.22 L 2373.05,9.67969 h 88.61 L 2517.53,211.59 2573.63,9.67969 h 85.08 L 2769.27,361.32 h -91.21"
         style="fill:#2a3b99;fill-opacity:1;fill-rule:nonzero;stroke:none"
         id="path38" />
    </g>
  </g>
</svg>
