<svg width="80" height="69" viewBox="0 0 80 69" fill="none" xmlns="http://www.w3.org/2000/svg">
<path opacity="0.978" fill-rule="evenodd" clip-rule="evenodd" d="M39.1228 0.0143658C39.8969 -0.0357828 40.6532 0.0453639 41.3949 0.257806C46.5315 2.77157 51.6161 5.36826 56.6505 8.04789C51.7817 10.7528 46.9129 13.4576 42.0441 16.1626C41.8282 16.2708 41.6107 16.2708 41.3949 16.1626C35.4436 13.4036 29.4939 10.6446 23.5426 7.8856C28.6824 5.12661 33.8758 2.50297 39.1228 0.0143658Z" fill="#41928F"/>
<path opacity="0.979" fill-rule="evenodd" clip-rule="evenodd" d="M21.7577 10.888C27.8713 13.6339 33.9573 16.4471 40.0157 19.3273C40.0968 25.0072 40.1244 30.6875 40.0968 36.3681C39.5386 36.4004 38.9981 36.3192 38.4739 36.1246C33.4964 33.6362 28.5205 31.1476 23.5429 28.6591C22.6389 28.1257 22.0709 27.3412 21.8388 26.3059C21.7577 21.1669 21.7301 16.0275 21.7577 10.888Z" fill="#41928F"/>
<path opacity="0.981" fill-rule="evenodd" clip-rule="evenodd" d="M57.9488 11.2126C58.137 16.3244 58.1646 21.4637 58.0299 26.6305C57.642 27.5598 57.0188 28.2901 56.1635 28.8215C51.9975 30.9042 47.833 32.987 43.667 35.0698C43.4771 29.7689 43.4511 24.4675 43.5858 19.165C48.4011 16.5363 53.1887 13.8854 57.9488 11.2126Z" fill="#41928F"/>
<path opacity="0.978" fill-rule="evenodd" clip-rule="evenodd" d="M17.3756 32.6354C18.1497 32.5852 18.906 32.6664 19.6477 32.8788C24.6496 35.3528 29.6271 37.8683 34.5787 40.4254C28.9536 43.1838 23.2733 45.8616 17.5379 48.459C17.1175 48.6722 16.6842 48.7805 16.2395 48.7835C11.2912 46.1198 6.3677 43.415 1.47083 40.6689C6.71842 37.8558 12.0199 35.178 17.3756 32.6354Z" fill="#41928F"/>
<path opacity="0.978" fill-rule="evenodd" clip-rule="evenodd" d="M60.8703 32.6354C61.6445 32.5852 62.4008 32.6664 63.1424 32.8788C68.279 35.3926 73.3637 37.9893 78.398 40.6689C73.5292 43.3738 68.6604 46.0786 63.7916 48.7835C63.5758 48.8918 63.3583 48.8918 63.1424 48.7835C57.1911 46.0246 51.2415 43.2656 45.2902 40.5066C50.4284 37.7484 55.6218 35.1248 60.8703 32.6354Z" fill="#41928F"/>
<path opacity="0.988" fill-rule="evenodd" clip-rule="evenodd" d="M36.2016 43.509C36.3899 48.729 36.4175 53.9764 36.2828 59.2515C35.8949 60.1808 35.2717 60.9111 34.4164 61.4424C29.6563 63.8228 24.8946 66.203 20.1346 68.5833C19.526 68.9061 18.8768 69.0413 18.1871 68.9891C18.1335 63.2536 18.1871 57.5193 18.3493 51.786C24.3445 49.0862 30.2958 46.3272 36.2016 43.509Z" fill="#41928F"/>
<path opacity="0.979" fill-rule="evenodd" clip-rule="evenodd" d="M43.5048 43.509C49.6184 46.2548 55.7044 49.068 61.7628 51.9483C61.8439 57.6282 61.8715 63.3085 61.8439 68.9891C61.2856 69.0214 60.7452 68.9402 60.221 68.7456C55.2434 66.2572 50.2675 63.7686 45.29 61.2801C44.386 60.7467 43.818 59.9622 43.5859 58.9269C43.5048 53.7879 43.4772 48.6485 43.5048 43.509Z" fill="#41928F"/>
<path opacity="0.984" fill-rule="evenodd" clip-rule="evenodd" d="M0.0101662 43.9959C4.90072 46.4821 9.7429 49.0788 14.5354 51.786C14.6442 57.0876 14.6442 62.3891 14.5354 67.6907C10.3012 65.533 6.05462 63.3963 1.79539 61.2801C0.891906 60.7467 0.323879 59.9622 0.0913129 58.9269C0.0101662 53.9502 -0.0169368 48.9731 0.0101662 43.9959Z" fill="#41928F"/>
<path opacity="0.981" fill-rule="evenodd" clip-rule="evenodd" d="M79.534 43.9959C79.7499 46.4821 79.8586 49.0245 79.8586 51.6237C79.831 54.1663 79.8051 56.7088 79.7775 59.2515C79.3896 60.1808 78.7664 60.9111 77.9111 61.4424C73.745 63.5251 69.5806 65.608 65.4145 67.6907C65.2246 62.3899 65.1987 57.0884 65.3334 51.786C70.0934 49.2113 74.8275 46.6147 79.534 43.9959Z" fill="#41928F"/>
</svg>
