<?xml version="1.0" encoding="utf-8"?>
<!-- Generator: Adobe Illustrator 25.2.1, SVG Export Plug-In . SVG Version: 6.00 Build 0)  -->
<svg version="1.1" id="Layer_1" xmlns="http://www.w3.org/2000/svg" xmlns:xlink="http://www.w3.org/1999/xlink" x="0px" y="0px"
	 viewBox="0 0 2400 1800" style="enable-background:new 0 0 2400 1800;" xml:space="preserve">
<style type="text/css">
	.st0{fill:#419290;}
</style>
<g>
	<g>
		<path class="st0" d="M716.5,1320.6c0-15.6,7.9-23.3,18.2-23.3c10.3,0,18.2,7.8,18.2,23.3c0,15.6-8,23.2-18.2,23.2
			C724.4,1343.8,716.5,1336.1,716.5,1320.6z M742.1,1320.6c0-10.5-3.3-14.1-7.5-14.1c-4.2,0-7.5,3.6-7.5,14.1
			c0,10.4,3.3,14.2,7.5,14.2C738.9,1334.8,742.1,1331,742.1,1320.6z"/>
		<path class="st0" d="M758.2,1343.4v-45.8h14.5c10.1,0,16.5,5.2,16.5,16c0,10.7-7.1,15.6-15,15.6h-5.7v14.2H758.2z M772.3,1320.9
			c4.2,0,6.5-2.5,6.5-7.3c0-4.4-2.2-7.6-6.9-7.6h-3.5v14.9H772.3z"/>
		<path class="st0" d="M793.7,1343.4v-45.8h26v8.4h-15.8v10.6h11.6v8.2h-11.6v10.2h15.8v8.4H793.7z"/>
		<path class="st0" d="M847,1343.4l-11.6-26v26h-10.3v-45.8h10.3l11.6,27.1v-27.1h10.3v45.8H847z"/>
		<path class="st0" d="M909.7,1343.2c0,0-1.6,0.5-5,0.5c-13.2,0-8.7-18.4-16.7-18.4h-1.9v18h-10.3v-45.8h10.3v19.3h2.1
			c5.4,0.1,8.2-5.1,8.2-19.3h10.2c0,13.2-3.3,20.1-7.6,23.1c5.5,4.4,3.4,14.4,9,14.4h1.8V1343.2z"/>
		<path class="st0" d="M934.8,1297.6H945v26.8c0,14.6-7.3,19.3-15.8,19.3c-8.4,0-15.9-4.8-15.8-19.3v-26.8h10.3v27.6
			c0,5,1,9.2,5.5,9.2c4.6,0,5.5-4.1,5.5-9.2V1297.6z"/>
		<path class="st0" d="M951.7,1343.4v-45.8h16.6c8,0,12.7,3.5,12.7,12.2c0,8-4.1,9.2-6.2,9.2v0.1c2.7,0,8.9,2.8,8.9,11.2
			c0,9.6-6.1,12.9-13.4,12.9H951.7z M965.9,1316.2c3.3,0,4.6-1.9,4.6-5.1c0-3.3-1.7-5.1-5.3-5.1H962v10.2H965.9z M967.2,1335
			c3.3,0,4.8-1.4,4.8-5.8c0-4.1-2.2-5.8-5.1-5.8H962v11.5H967.2z"/>
		<path class="st0" d="M988.6,1343.4v-45.8h26v8.4h-15.8v10.6h11.6v8.2h-11.6v10.2h15.8v8.4H988.6z"/>
		<path class="st0" d="M1053.8,1343.2c0,0-1.5,0.5-5,0.5c-13.2,0-8.7-16.7-16.6-16.7h-1.8v16.4h-10.3v-45.8h14.7
			c10.6,0,15.9,4.2,15.9,14.7c0,6.7-3.9,10.3-6.1,11.6c3.1,4.1,2.8,11.2,7.4,11.2h1.8V1343.2z M1033.7,1319.1c4.1,0,7-2.2,7-6.4
			c0-4.2-2.4-6.7-6.3-6.7h-4.1v13.1H1033.7z"/>
		<path class="st0" d="M1079.8,1343.4l-11.6-26v26H1058v-45.8h10.3l11.6,27.1v-27.1h10.3v45.8H1079.8z"/>
		<path class="st0" d="M1097.1,1343.4v-45.8h26v8.4h-15.8v10.6h11.6v8.2h-11.6v10.2h15.8v8.4H1097.1z"/>
		<path class="st0" d="M1138.7,1343.4V1306h-13.1v-8.4h35.7v8.4H1149v37.4H1138.7z"/>
		<path class="st0" d="M1165.5,1343.4v-45.8h26v8.4h-15.8v10.6h11.6v8.2h-11.6v10.2h15.8v8.4H1165.5z"/>
		<path class="st0" d="M1218.9,1311c0,0-2.2-5-7.5-5c-2.4,0-4.2,1.7-4.2,4.2c0,8.8,19.1,2.8,19.1,20.2c0,6.5-4.2,13.3-15.2,13.3
			c-12.9,0-16.7-9.7-16.7-9.7l6.1-5.8c0,0,3.7,7.1,9.5,7.1c3.4,0,5.4-1.8,5.4-4.5c0-9.8-19.3-2.5-19.3-20.4
			c0-7.1,5.2-13.1,14.6-13.1c12.5,0,15.4,9.1,15.4,9.1L1218.9,1311z"/>
		<path class="st0" d="M1242.9,1343.4v-45.8h12.6c10.3,0,19.9,6.4,19.9,23.7c0,16.5-9.2,22-18.5,22H1242.9z M1256.9,1335
			c4.8,0,8.4-4.8,8.4-13.8c0-9.1-2.1-15.2-9.9-15.2h-2.2v29H1256.9z"/>
		<path class="st0" d="M1301.6,1332.5h-12.2l-2.7,10.9h-10.9l14.4-45.8h10.7l14.3,45.8h-10.7L1301.6,1332.5z M1291.9,1324.7h7.2
			l-3.6-14.9L1291.9,1324.7z"/>
		<path class="st0" d="M1324.8,1343.4V1306h-13.1v-8.4h35.7v8.4h-12.4v37.4H1324.8z"/>
		<path class="st0" d="M1369.9,1332.5h-12.2l-2.7,10.9h-10.9l14.4-45.8h10.7l14.3,45.8h-10.7L1369.9,1332.5z M1360.2,1324.7h7.2
			l-3.6-14.9L1360.2,1324.7z"/>
		<path class="st0" d="M1396.8,1343.4v-45.8h14.5c10.1,0,16.5,5.2,16.5,16c0,10.7-7.1,15.6-15,15.6h-5.7v14.2H1396.8z
			 M1410.9,1320.9c4.2,0,6.5-2.5,6.5-7.3c0-4.4-2.2-7.6-6.9-7.6h-3.5v14.9H1410.9z"/>
		<path class="st0" d="M1432.3,1343.4v-45.8h10.3v37.4h15.7v8.4H1432.3z"/>
		<path class="st0" d="M1484.4,1332.5h-12.2l-2.7,10.9h-10.9l14.4-45.8h10.7l14.3,45.8h-10.7L1484.4,1332.5z M1474.7,1324.7h7.2
			l-3.6-14.9L1474.7,1324.7z"/>
		<path class="st0" d="M1507.6,1343.4V1306h-13.1v-8.4h35.7v8.4h-12.4v37.4H1507.6z"/>
		<path class="st0" d="M1534.3,1343.4v-45.8h26v8.4h-15.8v11.2h11.6v8.2h-11.6v18H1534.3z"/>
		<path class="st0" d="M1562.3,1320.6c0-15.6,7.9-23.3,18.2-23.3c10.3,0,18.2,7.8,18.2,23.3c0,15.6-8,23.2-18.2,23.2
			C1570.3,1343.8,1562.3,1336.1,1562.3,1320.6z M1588,1320.6c0-10.5-3.3-14.1-7.5-14.1c-4.2,0-7.5,3.6-7.5,14.1
			c0,10.4,3.3,14.2,7.5,14.2C1584.8,1334.8,1588,1331,1588,1320.6z"/>
		<path class="st0" d="M1637.8,1343.2c0,0-1.5,0.5-5,0.5c-13.2,0-8.7-16.7-16.6-16.7h-1.8v16.4h-10.3v-45.8h14.7
			c10.6,0,15.9,4.2,15.9,14.7c0,6.7-3.9,10.3-6.1,11.6c3.1,4.1,2.8,11.2,7.4,11.2h1.8V1343.2z M1617.7,1319.1c4.1,0,7-2.2,7-6.4
			c0-4.2-2.4-6.7-6.3-6.7h-4.1v13.1H1617.7z"/>
		<path class="st0" d="M1652.2,1318.9v24.4H1642v-45.8h10.3l10.5,26.9l11-26.9h9.8v45.8h-10.3l0.3-25.7l-7.6,20.1h-6.9
			L1652.2,1318.9z"/>
	</g>
	<path d="M982.2,1204.2c-30.2,29.9-66.9,44.9-110.2,44.9c-43.3,0-80-15-110.2-44.9c-30.2-29.9-45.3-66.8-45.3-110.6
		c0-43.9,15.1-80.7,45.3-110.7c30.2-29.9,66.9-44.9,110.2-44.9c43.3,0,80,15,110.2,44.9c30.2,29.9,45.3,66.8,45.3,110.7
		C1027.5,1137.4,1012.4,1174.3,982.2,1204.2z M809.8,1157.7c16.7,16.5,37.4,24.8,62.2,24.8c24.8,0,45.5-8.3,62.2-24.8
		c16.7-16.5,25-37.9,25-64.1c0-26.2-8.3-47.6-25-64.1c-16.7-16.5-37.4-24.8-62.2-24.8c-24.8,0-45.5,8.3-62.2,24.8
		c-16.7,16.5-25,37.9-25,64.1C784.8,1119.8,793.1,1141.1,809.8,1157.7z"/>
	<path d="M1574.7,938.1c30.5,0,56.3,10.4,77.3,31.1c21,20.7,31.5,45.9,31.5,75.5c0,29.6-10.5,54.8-31.5,75.5
		c-21,20.7-46.8,31.1-77.3,31.1H1528v97.7h-71.1v-311H1574.7z M1574.7,1084.7c11,0,20-3.8,27.1-11.6c7.1-7.7,10.7-17.2,10.7-28.4
		c0-11.3-3.6-20.7-10.7-28.4c-7.1-7.7-16.1-11.6-27.1-11.6H1528v80H1574.7z"/>
	<path d="M1446.4,982.7c-28.9-29.8-64.8-44.7-107.7-44.7h-124.4v151.5h71.1v-83.1h53.3c24.6,0,44.5,7.9,59.8,23.8
		c15.3,15.8,22.9,37,22.9,63.3c0,26.4-7.6,47.5-22.9,63.3c-15.3,15.8-35.2,23.8-59.8,23.8h-53.3v68.4h53.3
		c42.9,0,78.9-14.9,107.7-44.7c28.9-29.8,43.3-66.7,43.3-110.9C1489.7,1049.4,1475.2,1012.5,1446.4,982.7z"/>
	<path d="M1257.9,1249.1h-80.9l-99.5-144v144h-71.1v-311h71.1v135.1l95.1-135.1h80.9l-104.9,151.5L1257.9,1249.1z"/>
	<rect x="1172.6" y="938.1" width="115.1" height="68.4"/>
	<g>
		<path class="st0" d="M1165.3,704.3l-89.3-44.7c-6.3-3.1-13.7-3.1-20,0l-89.3,44.7c-1.1,0.6-2.1,1.4-3.1,2.1l91.7,50l111.2-51.3
			C1166.1,704.8,1165.8,704.5,1165.3,704.3z"/>
		<path class="st0" d="M954.3,813.6c0,8.5,4.8,16.2,12.4,20l77,38.5v-96.5l-89.3-48.7V813.6z"/>
		<path class="st0" d="M1066,880.6L1066,880.6c3.4,0,6.9-0.8,10-2.4l89.3-44.7c7.6-3.8,12.3-11.5,12.3-20v-89L1066,776.1L1066,880.6
			L1066,880.6z"/>
		<path class="st0" d="M1222.3,813.6c0,8.5,4.8,16.2,12.4,20l89.3,44.7c3.1,1.6,6.6,2.4,10,2.4V776.1l-111.7-51.5V813.6z"/>
		<path class="st0" d="M1433.3,704.3l-89.3-44.7c-6.3-3.1-13.7-3.1-20,0l-89.3,44.7c-0.4,0.2-0.8,0.6-1.2,0.8l111.2,51.3l91.7-50
			C1435.4,705.7,1434.5,704.8,1433.3,704.3z"/>
		<path class="st0" d="M1356.3,775.5V872l77-38.5c7.6-3.8,12.4-11.5,12.4-19.9v-86.8L1356.3,775.5z"/>
		<path class="st0" d="M1299.3,503.3l-89.3-44.7c-6.3-3.1-13.7-3.1-20,0l-89.3,44.7c-0.4,0.2-0.8,0.6-1.2,0.8l111.2,51.3l91.7-50
			C1301.4,504.7,1300.5,503.8,1299.3,503.3z"/>
		<path class="st0" d="M1222.3,671.1l77-38.5c7.6-3.8,12.4-11.5,12.4-20v-86.8l-89.3,48.7V671.1z"/>
		<path class="st0" d="M1088.3,612.6L1088.3,612.6c0,8.5,4.8,16.2,12.4,20l89.3,44.7c3.1,1.6,6.5,2.4,10,2.4V575.1l-111.7-51.5
			V612.6z"/>
	</g>
</g>
</svg>
